{
	"asset":{
		"version":"2.0",
		"generator":"Created using the official Cinema 4D glTF Exporter 1.000x290161"
	},
	"scenes":[{
		"nodes":[0,
		1,
		2,
		3,
		4,
		5,
		6,
		7]
	}],
	"nodes":[{
		"name":"Camera.1",
		"translation":[-117.41185760498047,
		457.03289794921877,
		1484.4998779296876],
		"rotation":[0.08517229557037354,
		-0.02115294337272644,
		-0.001808625995181501,
		-0.9961400032043457],
		"scale":[1.0,
		1.0,
		1.0],
		"camera":0
	},
	{
		"name":"Camera",
		"translation":[-11.076476097106934,
		373.7301330566406,
		1225.119873046875],
		"rotation":[0.05654646456241608,
		-0.021887890994548799,
		-0.0012399654369801283,
		-0.9981592297554016],
		"scale":[1.0,
		1.0,
		1.0],
		"camera":1
	},
	{
		"name":"Cube",
		"translation":[48.11770248413086,
		164.7395782470703,
		235.65261840820313],
		"rotation":[0.0,
		0.0,
		0.0,
		-1.0],
		"scale":[1.0,
		1.0,
		1.0],
		"mesh":0
	},
	{
		"name":"Cube.1",
		"translation":[-188.36380004882813,
		254.2501220703125,
		197.49423217773438],
		"rotation":[-0.12865175306797028,
		0.12952537834644319,
		-0.39136454463005068,
		-0.9019455313682556],
		"scale":[1.0,
		1.0,
		1.0],
		"mesh":1
	},
	{
		"name":"Sphere.2",
		"translation":[311.1026916503906,
		249.78919982910157,
		199.33023071289063],
		"rotation":[0.0,
		0.0,
		0.0,
		-1.0],
		"scale":[1.0,
		1.0,
		1.0],
		"mesh":2
	},
	{
		"name":"Sweep",
		"translation":[0.0,
		50.23798370361328,
		0.0],
		"rotation":[0.0,
		0.0,
		0.0,
		-1.0],
		"scale":[1.0,
		1.0,
		1.0],
		"mesh":3
	},
	{
		"name":"Sphere",
		"translation":[0.0,
		249.78919982910157,
		199.33023071289063],
		"rotation":[0.0,
		0.0,
		0.0,
		-1.0],
		"scale":[1.0,
		1.0,
		1.0],
		"mesh":4
	},
	{
		"name":"Sphere.1",
		"translation":[150.00714111328126,
		249.78919982910157,
		199.33023071289063],
		"rotation":[0.0,
		0.0,
		0.0,
		-1.0],
		"scale":[1.0,
		1.0,
		1.0],
		"mesh":5
	}],
	"cameras":[{
		"type":"perspective",
		"perspective":{
			"znear":0.009999999776482582,
			"zfar":10000000000.0,
			"aspectRatio":1.7777777910232545,
			"yfov":0.5483348965644836
		}
	},
	{
		"type":"perspective",
		"perspective":{
			"znear":0.009999999776482582,
			"zfar":10000000000.0,
			"aspectRatio":1.7777777910232545,
			"yfov":0.5483348965644836
		}
	}],
	"meshes":[{
		"primitives":[{
			"attributes":{
				"POSITION":1,
				"NORMAL":2,
				"TEXCOORD_0":3
			},
			"indices":0,
			"material":0
		}]
	},
	{
		"primitives":[{
			"attributes":{
				"POSITION":5,
				"NORMAL":6,
				"TEXCOORD_0":7
			},
			"indices":4,
			"material":1
		}]
	},
	{
		"primitives":[{
			"attributes":{
				"POSITION":9,
				"NORMAL":10,
				"TEXCOORD_0":11
			},
			"indices":8,
			"material":2
		}]
	},
	{
		"primitives":[{
			"attributes":{
				"POSITION":13,
				"NORMAL":14,
				"TEXCOORD_0":15
			},
			"indices":12,
			"material":3
		}]
	},
	{
		"primitives":[{
			"attributes":{
				"POSITION":17,
				"NORMAL":18,
				"TEXCOORD_0":19
			},
			"indices":16,
			"material":4
		}]
	},
	{
		"primitives":[{
			"attributes":{
				"POSITION":21,
				"NORMAL":22,
				"TEXCOORD_0":23
			},
			"indices":20,
			"material":5
		}]
	}],
	"accessors":[{
		"bufferView":0,
		"type":"SCALAR",
		"componentType":5123,
		"count":36,
		"byteOffset":0,
		"min":[0],
		"max":[23]
	},
	{
		"bufferView":1,
		"type":"VEC3",
		"componentType":5126,
		"count":24,
		"byteOffset":0,
		"min":[-403.7476806640625,
		-13.58972454071045,
		-153.188720703125],
		"max":[403.7476806640625,
		13.58972454071045,
		153.188720703125]
	},
	{
		"bufferView":1,
		"type":"VEC3",
		"componentType":5126,
		"count":24,
		"byteOffset":12,
		"min":[-1.0,
		-1.0,
		-1.0],
		"max":[1.0,
		1.0,
		1.0]
	},
	{
		"bufferView":1,
		"type":"VEC2",
		"componentType":5126,
		"count":24,
		"byteOffset":24,
		"min":[0.009061471559107304,
		0.009693039581179619],
		"max":[0.9909385442733765,
		0.9903069734573364]
	},
	{
		"bufferView":2,
		"type":"SCALAR",
		"componentType":5123,
		"count":36,
		"byteOffset":0,
		"min":[0],
		"max":[23]
	},
	{
		"bufferView":3,
		"type":"VEC3",
		"componentType":5126,
		"count":24,
		"byteOffset":0,
		"min":[-35.0,
		-35.0,
		-35.0],
		"max":[35.0,
		35.0,
		35.0]
	},
	{
		"bufferView":3,
		"type":"VEC3",
		"componentType":5126,
		"count":24,
		"byteOffset":12,
		"min":[-1.0,
		-1.0,
		-1.0],
		"max":[1.0,
		1.0,
		1.0]
	},
	{
		"bufferView":3,
		"type":"VEC2",
		"componentType":5126,
		"count":24,
		"byteOffset":24,
		"min":[0.01167546957731247,
		0.007783646695315838],
		"max":[0.9883245229721069,
		0.9922163486480713]
	},
	{
		"bufferView":4,
		"type":"SCALAR",
		"componentType":5123,
		"count":11904,
		"byteOffset":0,
		"min":[0],
		"max":[2189]
	},
	{
		"bufferView":5,
		"type":"VEC3",
		"componentType":5126,
		"count":2190,
		"byteOffset":0,
		"min":[-50.0,
		-50.0,
		-50.0],
		"max":[50.0,
		50.0,
		50.0]
	},
	{
		"bufferView":5,
		"type":"VEC3",
		"componentType":5126,
		"count":2190,
		"byteOffset":12,
		"min":[-0.9999999403953552,
		-0.9999999403953552,
		-0.9999999403953552],
		"max":[0.9999999403953552,
		0.9999999403953552,
		0.9999999403953552]
	},
	{
		"bufferView":5,
		"type":"VEC2",
		"componentType":5126,
		"count":2190,
		"byteOffset":24,
		"min":[0.007783728186041117,
		0.007808425463736057],
		"max":[0.9922162890434265,
		0.9921915531158447]
	},
	{
		"bufferView":6,
		"type":"SCALAR",
		"componentType":5123,
		"count":3636,
		"byteOffset":0,
		"min":[0],
		"max":[2423]
	},
	{
		"bufferView":7,
		"type":"VEC3",
		"componentType":5126,
		"count":2424,
		"byteOffset":0,
		"min":[-1000.0,
		-7.409268379211426,
		-100.55614471435547],
		"max":[1000.0,
		596.1173706054688,
		503.77191162109377]
	},
	{
		"bufferView":7,
		"type":"VEC3",
		"componentType":5126,
		"count":2424,
		"byteOffset":12,
		"min":[0.0,
		-0.9999926090240479,
		-1.0],
		"max":[0.0,
		0.9999926090240479,
		1.0]
	},
	{
		"bufferView":7,
		"type":"VEC2",
		"componentType":5126,
		"count":2424,
		"byteOffset":24,
		"min":[0.00255753961391747,
		0.002566516399383545],
		"max":[0.9974424839019775,
		0.9974334239959717]
	},
	{
		"bufferView":8,
		"type":"SCALAR",
		"componentType":5123,
		"count":11904,
		"byteOffset":0,
		"min":[0],
		"max":[2189]
	},
	{
		"bufferView":9,
		"type":"VEC3",
		"componentType":5126,
		"count":2190,
		"byteOffset":0,
		"min":[-50.0,
		-50.0,
		-50.0],
		"max":[50.0,
		50.0,
		50.0]
	},
	{
		"bufferView":9,
		"type":"VEC3",
		"componentType":5126,
		"count":2190,
		"byteOffset":12,
		"min":[-0.9999999403953552,
		-0.9999999403953552,
		-0.9999999403953552],
		"max":[0.9999999403953552,
		0.9999999403953552,
		0.9999999403953552]
	},
	{
		"bufferView":9,
		"type":"VEC2",
		"componentType":5126,
		"count":2190,
		"byteOffset":24,
		"min":[0.007783728186041117,
		0.007808425463736057],
		"max":[0.9922162890434265,
		0.9921915531158447]
	},
	{
		"bufferView":10,
		"type":"SCALAR",
		"componentType":5123,
		"count":11904,
		"byteOffset":0,
		"min":[0],
		"max":[2189]
	},
	{
		"bufferView":11,
		"type":"VEC3",
		"componentType":5126,
		"count":2190,
		"byteOffset":0,
		"min":[-50.0,
		-50.0,
		-50.0],
		"max":[50.0,
		50.0,
		50.0]
	},
	{
		"bufferView":11,
		"type":"VEC3",
		"componentType":5126,
		"count":2190,
		"byteOffset":12,
		"min":[-0.9999999403953552,
		-0.9999999403953552,
		-0.9999999403953552],
		"max":[0.9999999403953552,
		0.9999999403953552,
		0.9999999403953552]
	},
	{
		"bufferView":11,
		"type":"VEC2",
		"componentType":5126,
		"count":2190,
		"byteOffset":24,
		"min":[0.007783728186041117,
		0.007808425463736057],
		"max":[0.9922162890434265,
		0.9921915531158447]
	}],
	"bufferViews":[{
		"buffer":0,
		"byteOffset":0,
		"byteLength":72,
		"target":34963
	},
	{
		"buffer":0,
		"byteOffset":72,
		"byteLength":768,
		"target":34962,
		"byteStride":32
	},
	{
		"buffer":1,
		"byteOffset":0,
		"byteLength":72,
		"target":34963
	},
	{
		"buffer":1,
		"byteOffset":72,
		"byteLength":768,
		"target":34962,
		"byteStride":32
	},
	{
		"buffer":2,
		"byteOffset":0,
		"byteLength":23808,
		"target":34963
	},
	{
		"buffer":2,
		"byteOffset":23808,
		"byteLength":70080,
		"target":34962,
		"byteStride":32
	},
	{
		"buffer":3,
		"byteOffset":0,
		"byteLength":7272,
		"target":34963
	},
	{
		"buffer":3,
		"byteOffset":7272,
		"byteLength":77568,
		"target":34962,
		"byteStride":32
	},
	{
		"buffer":4,
		"byteOffset":0,
		"byteLength":23808,
		"target":34963
	},
	{
		"buffer":4,
		"byteOffset":23808,
		"byteLength":70080,
		"target":34962,
		"byteStride":32
	},
	{
		"buffer":5,
		"byteOffset":0,
		"byteLength":23808,
		"target":34963
	},
	{
		"buffer":5,
		"byteOffset":23808,
		"byteLength":70080,
		"target":34962,
		"byteStride":32
	}],
	"buffers":[{
		"uri":"data:application/octet-stream;base64,",
		"byteLength":840
	},
	{
		"uri":"data:application/octet-stream;base64,",
		"byteLength":840
	},
	{
		"uri":"data:application/octet-stream;base64,",
		"byteLength":93888
	},
	{
		"uri":"data:application/octet-stream;base64,",
		"byteLength":84840
	},
	{
		"uri":"data:application/octet-stream;base64,",
		"byteLength":93888
	},
	{
		"uri":"data:application/octet-stream;base64,",
		"byteLength":93888
	}],
	"images":[{
		"uri":"data:image/jpeg;base64,"
	}],
	"samplers":[{
		"magFilter":9729,
		"minFilter":9728,
		"wrapS":10497,
		"wrapT":10497
	}],
	"textures":[{
		"sampler":0,
		"source":0
	}],
	"materials":[{
		"pbrMetallicRoughness":{
			"baseColorFactor":[1.0,
			1.0,
			1.0,
			1.0],
			"metallicFactor":0.0,
			"roughnessFactor":0.5
		},
		"emissiveFactor":[1.0,
		1.0,
		1.0],
		"alphaMode":"OPAQUE",
		"doubleSided":true,
		"name":"Cube"
	},
	{
		"pbrMetallicRoughness":{
			"baseColorFactor":[1.0,
			1.0,
			1.0,
			1.0],
			"metallicFactor":0.0,
			"roughnessFactor":0.5
		},
		"emissiveTexture":{
			"index":0
		},
		"emissiveFactor":[1.0,
		1.0,
		1.0],
		"alphaMode":"OPAQUE",
		"doubleSided":true,
		"name":"Cube.1"
	},
	{
		"pbrMetallicRoughness":{
			"baseColorFactor":[1.0,
			1.0,
			1.0,
			1.0],
			"metallicFactor":0.0,
			"roughnessFactor":0.5
		},
		"emissiveFactor":[1.0,
		1.0,
		1.0],
		"alphaMode":"OPAQUE",
		"doubleSided":true,
		"name":"Sphere.2"
	},
	{
		"pbrMetallicRoughness":{
			"baseColorFactor":[1.0,
			1.0,
			1.0,
			1.0],
			"metallicFactor":0.0,
			"roughnessFactor":0.5
		},
		"emissiveFactor":[1.0,
		1.0,
		1.0],
		"alphaMode":"OPAQUE",
		"doubleSided":true,
		"name":"Sweep"
	},
	{
		"pbrMetallicRoughness":{
			"baseColorFactor":[1.0,
			1.0,
			1.0,
			1.0],
			"metallicFactor":0.0,
			"roughnessFactor":0.5
		},
		"emissiveFactor":[1.0,
		1.0,
		1.0],
		"alphaMode":"OPAQUE",
		"doubleSided":true,
		"name":"Sphere"
	},
	{
		"pbrMetallicRoughness":{
			"baseColorFactor":[1.0,
			1.0,
			1.0,
			1.0],
			"metallicFactor":0.0,
			"roughnessFactor":0.5
		},
		"emissiveFactor":[1.0,
		1.0,
		1.0],
		"alphaMode":"OPAQUE",
		"doubleSided":true,
		"name":"Sphere.1"
	}]
}